<?xml version="1.0" standalone="no"?>
<!DOCTYPE svg PUBLIC "-//W3C//DTD SVG 20010904//EN"
 "http://www.w3.org/TR/2001/REC-SVG-20010904/DTD/svg10.dtd">
<svg version="1.0" xmlns="http://www.w3.org/2000/svg"
 width="700.000000pt" height="700.000000pt" viewBox="0 0 700.000000 700.000000"
 preserveAspectRatio="xMidYMid meet">
<metadata>
Created by potrace 1.11, written by Peter Selinger 2001-2013
</metadata>
<g transform="translate(0.000000,700.000000) scale(0.100000,-0.100000)"
fill="#000000" stroke="none">
<path d="M0 3500 l0 -3500 3500 0 3500 0 0 3500 0 3500 -3500 0 -3500 0 0
-3500z m5485 3043 c404 -70 758 -338 947 -718 152 -304 173 -681 57 -1012 -94
-269 -287 -514 -524 -666 -347 -222 -767 -272 -1152 -136 -624 220 -986 867
-849 1516 81 382 347 724 701 900 253 127 530 166 820 116z m-2475 0 c16 -9
33 -27 39 -40 8 -17 11 -392 11 -1259 l0 -1236 -34 -34 -34 -34 -1236 0 c-867
0 -1242 3 -1259 11 -13 6 -31 23 -40 39 -16 26 -17 128 -17 1262 1 1324 -2
1265 51 1294 20 11 253 13 1257 14 1134 0 1236 -1 1262 -17z m1646 -3517 l34
-34 0 -461 0 -461 388 0 c348 0 390 -2 422 -18 69 -34 70 -40 70 -474 l0 -388
461 0 461 0 34 -34 34 -34 0 -247 0 -247 -34 -34 -34 -34 -736 0 c-649 0 -741
2 -767 16 -57 29 -59 45 -59 469 l0 385 -377 0 c-235 0 -392 4 -416 11 -26 7
-44 21 -57 42 -19 31 -20 57 -20 771 l0 738 34 34 34 34 247 0 247 0 34 -34z
m-2851 -265 c24 -14 156 -235 603 -1009 632 -1095 603 -1037 543 -1104 l-29
-33 -1172 0 -1172 0 -29 33 c-60 67 -89 9 543 1104 596 1032 593 1028 658
1028 14 0 39 -8 55 -19z"/>
<path d="M5155 5921 c-153 -25 -269 -85 -381 -196 -134 -134 -196 -281 -198
-470 0 -124 14 -184 71 -305 38 -80 58 -108 128 -177 68 -67 99 -89 176 -126
119 -57 180 -71 304 -71 183 0 337 65 471 199 68 68 89 97 127 176 56 118 71
179 71 299 0 120 -15 181 -70 297 -85 177 -244 309 -432 357 -76 20 -199 28
-267 17z"/>
<path d="M1070 5250 l0 -680 680 0 680 0 0 680 0 680 -680 0 -680 0 0 -680z"/>
<path d="M1642 1433 l-102 -178 105 -3 c58 -1 152 -1 210 0 l105 3 -102 178
c-56 97 -105 177 -108 177 -3 0 -52 -80 -108 -177z"/>
</g>
</svg>
